<svg width="60" height="60" viewBox="0 0 64 64" fill="none" xmlns="http://www.w3.org/2000/svg">
    <g filter="url(#icon-shadow)">
        <path
            d="M18.47 38.22C20.34 36.79 22.43 35.6625 24.74 34.8375C27.05 34.0125 29.47 33.6 32 33.6C34.53 33.6 36.95 34.0125 39.26 34.8375C41.57 35.6625 43.66 36.79 45.53 38.22C46.8133 36.7167 47.8125 35.0117 48.5275 33.105C49.2425 31.1983 49.6 29.1633 49.6 27C49.6 22.1233 47.8858 17.9708 44.4575 14.5425C41.0292 11.1142 36.8767 9.4 32 9.4C27.1233 9.4 22.9708 11.1142 19.5425 14.5425C16.1142 17.9708 14.4 22.1233 14.4 27C14.4 29.1633 14.7575 31.1983 15.4725 33.105C16.1875 35.0117 17.1867 36.7167 18.47 38.22ZM32 29.2C29.8367 29.2 28.0125 28.4575 26.5275 26.9725C25.0425 25.4875 24.3 23.6633 24.3 21.5C24.3 19.3367 25.0425 17.5125 26.5275 16.0275C28.0125 14.5425 29.8367 13.8 32 13.8C34.1633 13.8 35.9875 14.5425 37.4725 16.0275C38.9575 17.5125 39.7 19.3367 39.7 21.5C39.7 23.6633 38.9575 25.4875 37.4725 26.9725C35.9875 28.4575 34.1633 29.2 32 29.2ZM32 49C28.9567 49 26.0967 48.4225 23.42 47.2675C20.7433 46.1125 18.415 44.545 16.435 42.565C14.455 40.585 12.8875 38.2567 11.7325 35.58C10.5775 32.9033 10 30.0433 10 27C10 23.9567 10.5775 21.0967 11.7325 18.42C12.8875 15.7433 14.455 13.415 16.435 11.435C18.415 9.455 20.7433 7.8875 23.42 6.7325C26.0967 5.5775 28.9567 5 32 5C35.0433 5 37.9033 5.5775 40.58 6.7325C43.2567 7.8875 45.585 9.455 47.565 11.435C49.545 13.415 51.1125 15.7433 52.2675 18.42C53.4225 21.0967 54 23.9567 54 27C54 30.0433 53.4225 32.9033 52.2675 35.58C51.1125 38.2567 49.545 40.585 47.565 42.565C45.585 44.545 43.2567 46.1125 40.58 47.2675C37.9033 48.4225 35.0433 49 32 49Z"
            fill="white" />
    </g>
    <defs>
        <filter id="icon-shadow" x="0" y="0" width="64" height="64"
            filterUnits="userSpaceOnUse" color-interpolation-filters="sRGB">
            <feFlood flood-opacity="0" result="BackgroundImageFix" />
            <feColorMatrix in="SourceAlpha" type="matrix"
                values="0 0 0 0 0 0 0 0 0 0 0 0 0 0 0 0 0 0 127 0" result="hardAlpha" />
            <feOffset dy="5" />
            <feGaussianBlur stdDeviation="5" />
            <feComposite in2="hardAlpha" operator="out" />
            <feColorMatrix type="matrix" values="0 0 0 0 0 0 0 0 0 0 0 0 0 0 0 0 0 0 0.5 0" />
            <feBlend mode="normal" in2="BackgroundImageFix" result="effect1_dropShadow_946_512" />
            <feBlend mode="normal" in="SourceGraphic" in2="effect1_dropShadow_946_512"
                result="shape" />
        </filter>
    </defs>
</svg>