<?xml version="1.0" encoding="UTF-8" standalone="no" ?>
<!DOCTYPE svg PUBLIC "-//W3C//DTD SVG 1.1//EN" "http://www.w3.org/Graphics/SVG/1.1/DTD/svg11.dtd">
<svg xmlns="http://www.w3.org/2000/svg" xmlns:xlink="http://www.w3.org/1999/xlink" version="1.1" width="1080" height="1080" viewBox="0 0 1080 1080" xml:space="preserve">
<desc>Created with Fabric.js 5.2.4</desc>
<defs>
</defs>
<g transform="matrix(1 0 0 1 540 540)" id="ae3676fe-40ff-4942-a40b-4fe935dc15d4"  >
<rect style="stroke: none; stroke-width: 1; stroke-dasharray: none; stroke-linecap: butt; stroke-dashoffset: 0; stroke-linejoin: miter; stroke-miterlimit: 4; fill: rgb(255,255,255); fill-rule: nonzero; opacity: 1; visibility: hidden;" vector-effect="non-scaling-stroke"  x="-540" y="-540" rx="0" ry="0" width="1080" height="1080" />
</g>
<g transform="matrix(1 0 0 1 540 540)" id="025165e7-4069-435a-bd0b-6c7438e0b180"  >
</g>
<g transform="matrix(0 -4.42 4.42 0 -300.98 760.5)"  >
<g style="" vector-effect="non-scaling-stroke"   >
		<g transform="matrix(1 0 0 1 -5.77 0)"  >
<rect style="stroke: none; stroke-width: 1; stroke-dasharray: none; stroke-linecap: butt; stroke-dashoffset: 0; stroke-linejoin: miter; stroke-miterlimit: 4; fill: rgb(255,255,255); fill-rule: nonzero; opacity: 1;" vector-effect="non-scaling-stroke"  x="-180" y="-144" rx="0" ry="0" width="360" height="288" />
</g>
		<g transform="matrix(1 0 0 1 -2.1 91.62)" clip-path="url(#CLIPPATH_4)"  >
<radialGradient id="SVGID_SVGID_00000029003812825639823000000014259828928655262135__3" gradientUnits="userSpaceOnUse" gradientTransform="matrix(1 0 0 1 -183.67 -235.62)"  cx="183.6648" cy="235.6223" r="150.5621" fx="183.6648" fy="235.6223">
<stop offset="0%" style="stop-color:rgb(38,38,38);stop-opacity: 1"/>
<stop offset="31.15%" style="stop-color:rgb(33,33,33);stop-opacity: 1"/>
<stop offset="67.4%" style="stop-color:rgb(19,19,19);stop-opacity: 1"/>
<stop offset="100%" style="stop-color:rgb(0,0,0);stop-opacity: 1"/>
</radialGradient>
<clipPath id="CLIPPATH_4" >
	<rect transform="matrix(1 0 0 1 -3.67 -91.62)" id="SVGID_00000119082453595531569540000010060365539180144783_" x="-180" y="-144" rx="0" ry="0" width="360" height="288" />
</clipPath>
<rect style="stroke: none; stroke-width: 1; stroke-dasharray: none; stroke-linecap: butt; stroke-dashoffset: 0; stroke-linejoin: miter; stroke-miterlimit: 4; fill: url(#SVGID_SVGID_00000029003812825639823000000014259828928655262135__3); fill-rule: nonzero; opacity: 1;" vector-effect="non-scaling-stroke"  x="-211.639" y="-23.386" rx="0" ry="0" width="423.278" height="46.772" />
</g>
		<g transform="matrix(1 0 0 1 0 74.76)" clip-path="url(#CLIPPATH_5)"  >
<clipPath id="CLIPPATH_5" >
	<rect transform="matrix(1 0 0 1 -5.77 -74.76)" id="SVGID_00000119082453595531569540000010060365539180144783_" x="-180" y="-144" rx="0" ry="0" width="360" height="288" />
</clipPath>
<rect style="stroke: none; stroke-width: 1; stroke-dasharray: none; stroke-linecap: butt; stroke-dashoffset: 0; stroke-linejoin: miter; stroke-miterlimit: 4; fill: rgb(255,189,0); fill-rule: nonzero; opacity: 1;" vector-effect="non-scaling-stroke"  x="-222.1405" y="-0.467" rx="0" ry="0" width="444.281" height="0.934" />
</g>
		<g transform="matrix(1 0 0 1 0 107.92)" clip-path="url(#CLIPPATH_6)"  >
<clipPath id="CLIPPATH_6" >
	<rect transform="matrix(1 0 0 1 -5.77 -107.92)" id="SVGID_00000119082453595531569540000010060365539180144783_" x="-180" y="-144" rx="0" ry="0" width="360" height="288" />
</clipPath>
<rect style="stroke: none; stroke-width: 1; stroke-dasharray: none; stroke-linecap: butt; stroke-dashoffset: 0; stroke-linejoin: miter; stroke-miterlimit: 4; fill: rgb(255,189,0); fill-rule: nonzero; opacity: 1;" vector-effect="non-scaling-stroke"  x="-222.1405" y="-0.467" rx="0" ry="0" width="444.281" height="0.934" />
</g>
		<g transform="matrix(1 0 0 1 -217.94 91.62)" clip-path="url(#CLIPPATH_7)"  >
<clipPath id="CLIPPATH_7" >
	<rect transform="matrix(1 0 0 1 212.17 -91.62)" id="SVGID_00000119082453595531569540000010060365539180144783_" x="-180" y="-144" rx="0" ry="0" width="360" height="288" />
</clipPath>
<rect style="stroke: none; stroke-width: 1; stroke-dasharray: none; stroke-linecap: butt; stroke-dashoffset: 0; stroke-linejoin: miter; stroke-miterlimit: 4; fill: rgb(255,255,255); fill-rule: nonzero; opacity: 1;" vector-effect="non-scaling-stroke"  x="-4.2015" y="-0.9335" rx="0" ry="0" width="8.403" height="1.867" />
</g>
		<g transform="matrix(1 0 0 1 0 91.62)" clip-path="url(#CLIPPATH_8)"  >
<clipPath id="CLIPPATH_8" >
	<rect transform="matrix(1 0 0 1 -5.77 -91.62)" id="SVGID_00000119082453595531569540000010060365539180144783_" x="-180" y="-144" rx="0" ry="0" width="360" height="288" />
</clipPath>
<path style="stroke: none; stroke-width: 1; stroke-dasharray: none; stroke-linecap: butt; stroke-dashoffset: 0; stroke-linejoin: miter; stroke-miterlimit: 4; fill: rgb(255,255,255); fill-rule: nonzero; opacity: 1;" vector-effect="non-scaling-stroke"  transform=" translate(-185.77, -235.62)" d="M 382.404 236.556 L 365.305 236.556 L 365.305 234.68900000000002 L 382.404 234.68900000000002 L 382.404 236.556 z M 348.206 236.556 L 331.107 236.556 L 331.107 234.68900000000002 L 348.206 234.68900000000002 L 348.206 236.556 z M 314.008 236.556 L 296.909 236.556 L 296.909 234.68900000000002 L 314.008 234.68900000000002 L 314.008 236.556 z M 279.81 236.556 L 262.711 236.556 L 262.711 234.68900000000002 L 279.81 234.68900000000002 L 279.81 236.556 z M 245.612 236.556 L 228.513 236.556 L 228.513 234.68900000000002 L 245.612 234.68900000000002 L 245.612 236.556 z M 211.414 236.556 L 194.315 236.556 L 194.315 234.68900000000002 L 211.414 234.68900000000002 L 211.414 236.556 z M 177.216 236.556 L 160.11700000000002 236.556 L 160.11700000000002 234.68900000000002 L 177.216 234.68900000000002 L 177.216 236.556 z M 143.018 236.556 L 125.919 236.556 L 125.919 234.68900000000002 L 143.018 234.68900000000002 L 143.018 236.556 z M 108.82 236.556 L 91.721 236.556 L 91.721 234.68900000000002 L 108.82000000000001 234.68900000000002 L 108.82000000000001 236.556 z M 74.622 236.556 L 57.523 236.556 L 57.523 234.68900000000002 L 74.622 234.68900000000002 L 74.622 236.556 z M 40.424 236.556 L 23.325 236.556 L 23.325 234.68900000000002 L 40.424 234.68900000000002 L 40.424 236.556 z M 6.226 236.556 L -10.873000000000001 236.556 L -10.873000000000001 234.68900000000002 L 6.226 234.68900000000002 L 6.226 236.556 z" stroke-linecap="round" />
</g>
		<g transform="matrix(1 0 0 1 217.94 91.62)" clip-path="url(#CLIPPATH_9)"  >
<clipPath id="CLIPPATH_9" >
	<rect transform="matrix(1 0 0 1 -223.7 -91.62)" id="SVGID_00000119082453595531569540000010060365539180144783_" x="-180" y="-144" rx="0" ry="0" width="360" height="288" />
</clipPath>
<rect style="stroke: none; stroke-width: 1; stroke-dasharray: none; stroke-linecap: butt; stroke-dashoffset: 0; stroke-linejoin: miter; stroke-miterlimit: 4; fill: rgb(255,255,255); fill-rule: nonzero; opacity: 1;" vector-effect="non-scaling-stroke"  x="-4.2015" y="-0.9335" rx="0" ry="0" width="8.403" height="1.867" />
</g>
</g>
</g>
</svg>