<svg width="50" height="49" viewBox="0 0 50 49" fill="none" xmlns="http://www.w3.org/2000/svg">
    <g id="Frame" filter="url(#filter0_d_445_320)">
        <path id="Vector" fill-rule="evenodd" clip-rule="evenodd"
            d="M4 11.1806C4 8.21529 5.17192 5.37147 7.25794 3.27471C9.34397 1.17795 12.1732 0 15.1233 0H32.9206C35.8707 0 38.7 1.17795 40.786 3.27471C42.872 5.37147 44.0439 8.21529 44.0439 11.1806V29.0694C44.0439 32.0347 42.872 34.8785 40.786 36.9753C38.7 39.0721 35.8707 40.25 32.9206 40.25H15.1233C12.1732 40.25 9.34397 39.0721 7.25794 36.9753C5.17192 34.8785 4 32.0347 4 29.0694V11.1806ZM15.1233 4.47222C13.3533 4.47222 11.6557 5.17899 10.4041 6.43705C9.15248 7.6951 8.44933 9.40139 8.44933 11.1806V29.0694C8.44933 30.8486 9.15248 32.5549 10.4041 33.813C11.6557 35.071 13.3533 35.7778 15.1233 35.7778H32.9206C34.6907 35.7778 36.3882 35.071 37.6399 33.813C38.8915 32.5549 39.5946 30.8486 39.5946 29.0694V11.1806C39.5946 9.40139 38.8915 7.6951 37.6399 6.43705C36.3882 5.17899 34.6907 4.47222 32.9206 4.47222H15.1233ZM32.0241 9.42297C32.0241 8.82992 32.2585 8.26116 32.6757 7.8418C33.0929 7.42245 33.6587 7.18686 34.2488 7.18686H34.271C34.861 7.18686 35.4269 7.42245 35.8441 7.8418C36.2613 8.26116 36.4957 8.82992 36.4957 9.42297C36.4957 10.016 36.2613 10.5848 35.8441 11.0041C35.4269 11.4235 34.861 11.6591 34.271 11.6591H34.2488C33.6587 11.6591 33.0929 11.4235 32.6757 11.0041C32.2585 10.5848 32.0241 10.016 32.0241 9.42297ZM24.022 13.4167C22.2519 13.4167 20.5544 14.1234 19.3027 15.3815C18.0511 16.6395 17.348 18.3458 17.348 20.125C17.348 21.9042 18.0511 23.6105 19.3027 24.8685C20.5544 26.1266 22.2519 26.8333 24.022 26.8333C25.792 26.8333 27.4896 26.1266 28.7412 24.8685C29.9928 23.6105 30.696 21.9042 30.696 20.125C30.696 18.3458 29.9928 16.6395 28.7412 15.3815C27.4896 14.1234 25.792 13.4167 24.022 13.4167ZM12.8987 20.125C12.8987 17.1597 14.0706 14.3159 16.1566 12.2192C18.2426 10.1224 21.0719 8.94444 24.022 8.94444C26.9721 8.94444 29.8013 10.1224 31.8873 12.2192C33.9734 14.3159 35.1453 17.1597 35.1453 20.125C35.1453 23.0903 33.9734 25.9341 31.8873 28.0308C29.8013 30.1276 26.9721 31.3056 24.022 31.3056C21.0719 31.3056 18.2426 30.1276 16.1566 28.0308C14.0706 25.9341 12.8987 23.0903 12.8987 20.125Z"
            fill="white" />
    </g>
    <defs>
        <filter id="filter0_d_445_320" x="0" y="0" width="54" height="54"
            filterUnits="userSpaceOnUse"
            color-interpolation-filters="sRGB">
            <feFlood flood-opacity="0" result="BackgroundImageFix" />
            <feColorMatrix in="SourceAlpha" type="matrix"
                values="0 0 0 0 0 0 0 0 0 0 0 0 0 0 0 0 0 0 127 0"
                result="hardAlpha" />
            <feOffset dy="4" />
            <feGaussianBlur stdDeviation="2" />
            <feComposite in2="hardAlpha" operator="out" />
            <feColorMatrix type="matrix" values="0 0 0 0 0 0 0 0 0 0 0 0 0 0 0 0 0 0 0.25 0" />
            <feBlend mode="normal" in2="BackgroundImageFix" result="effect1_dropShadow_445_320" />
            <feBlend mode="normal" in="SourceGraphic" in2="effect1_dropShadow_445_320"
                result="shape" />
        </filter>
    </defs>
</svg>